<?xml version="1.0" encoding="UTF-8"?>
<svg width="310px" height="221px" viewBox="0 0 310 221" version="1.1" xmlns="http://www.w3.org/2000/svg" xmlns:xlink="http://www.w3.org/1999/xlink">
    <title>Group 7</title>
    <defs>
        <polygon id="path-1" points="0 0.0616835045 143.178493 0.0616835045 143.178493 218.184261 0 218.184261"></polygon>
        <polygon id="path-3" points="0.113977982 0.0616835045 143.273334 0.0616835045 143.273334 218.184261 0.113977982 218.184261"></polygon>
    </defs>
    <g id="Welcome" stroke="none" stroke-width="1" fill="none" fill-rule="evenodd">
        <g id="Desktop-HD-Copy" transform="translate(-1006.000000, -1086.000000)">
            <g id="Group-7" transform="translate(1161.000000, 1196.500000) scale(-1, 1) translate(-1161.000000, -1196.500000) translate(1006.000000, 1086.000000)">
                <g id="Group-3">
                    <path d="M129.034787,180.956489 L105.176139,220.938316 C41.5410525,191.025517 9.72350937,140.232162 9.72350937,68.5582506 L9.72350937,65.4524264 C9.72350937,47.6867497 16.0951347,32.7959978 28.8203482,20.8028079 C41.5410525,8.81414533 59.352744,2.81528662 82.2644414,2.81528662 C103.904519,2.81528662 121.08942,8.81414533 133.805615,20.8028079 C146.539847,32.7959978 152.902453,47.6867497 152.902453,65.4524264 C152.902453,83.2271579 146.539847,98.0409433 133.805615,109.884728 C121.08942,121.728512 103.588869,127.650404 81.3129814,127.650404 L76.064169,127.650404 C85.6058245,154.004636 103.268709,171.779367 129.034787,180.956489" id="Fill-1" fill="#2F2F2F"></path>
                    <mask id="mask-2" fill="white">
                        <use xlink:href="#path-1"></use>
                    </mask>
                    <g id="Clip-2"></g>
                </g>
                <g id="Group-6" transform="translate(156.000000, 0.000000)">
                    <path d="M129.135148,180.956489 L105.279313,220.938316 C41.6517298,191.025517 9.83793828,140.232162 9.83793828,68.5582506 L9.83793828,65.4524264 C9.83793828,47.6867497 16.2088123,32.7959978 28.9325254,20.8028079 C41.6517298,8.81414533 59.4613211,2.81528662 82.3703169,2.81528662 C104.007843,2.81528662 121.190717,8.81414533 133.905413,20.8028079 C146.638143,32.7959978 153,47.6867497 153,65.4524264 C153,83.2271579 146.638143,98.0409433 133.905413,109.884728 C121.190717,121.728512 103.69223,127.650404 81.4189691,127.650404 L76.1707756,127.650404 C85.7113061,154.004636 103.372108,171.779367 129.135148,180.956489" id="Fill-4" fill="#2F2F2F"></path>
                    <mask id="mask-4" fill="white">
                        <use xlink:href="#path-3"></use>
                    </mask>
                    <g id="Clip-5"></g>
                </g>
            </g>
        </g>
    </g>
</svg>