<?xml version="1.0" standalone="no"?>
<!DOCTYPE svg PUBLIC "-//W3C//DTD SVG 20010904//EN"
 "http://www.w3.org/TR/2001/REC-SVG-20010904/DTD/svg10.dtd">
<svg version="1.0" xmlns="http://www.w3.org/2000/svg"
 width="827.000000pt" height="327.000000pt" viewBox="0 0 827.000000 327.000000"
 preserveAspectRatio="xMidYMid meet">

<g transform="translate(0.000000,327.000000) scale(0.100000,-0.100000)"
fill="#000000" stroke="none">
<path d="M0 1635 l0 -1635 4135 0 4135 0 0 1635 0 1635 -4135 0 -4135 0 0
-1635z m4908 1218 c-883 -2 -2332 -2 -3220 0 -887 1 -164 2 1607 2 1771 0
2497 -1 1613 -2z m2600 0 c-175 -2 -461 -2 -635 0 -175 1 -32 2 317 2 349 0
492 -1 318 -2z m-2735 -320 c-859 -2 -2267 -2 -3130 0 -862 1 -160 2 1562 2
1722 0 2427 -1 1568 -2z m2750 0 c-211 -2 -555 -2 -765 0 -211 1 -39 2 382 2
421 0 593 -1 383 -2z m-2880 -320 c-838 -2 -2208 -2 -3045 0 -838 1 -153 2
1522 2 1675 0 2360 -1 1523 -2z m2835 0 c-236 -2 -620 -2 -855 0 -236 1 -43 2
427 2 470 0 663 -1 428 -2z m-2970 -320 c-813 -2 -2143 -2 -2955 0 -813 1
-148 2 1477 2 1625 0 2290 -1 1478 -2z m2924 0 c-259 -2 -685 -2 -945 0 -259
1 -47 2 473 2 520 0 732 -1 472 -2z m-3060 -320 c-787 -2 -2077 -2 -2865 0
-787 1 -143 2 1433 2 1576 0 2220 -1 1432 -2z m3016 0 c-285 -2 -751 -2 -1035
0 -285 1 -52 2 517 2 569 0 802 -1 518 -2z m-4216 -320 c-567 -2 -1497 -2
-2065 0 -567 1 -103 2 1033 2 1136 0 1600 -1 1032 -2z m1171 0 c-13 -2 -35 -2
-50 0 -16 2 -5 4 22 4 28 0 40 -2 28 -4z m1005 0 c-153 -2 -403 -2 -556 0
-152 1 -27 2 278 2 305 0 430 -1 278 -2z m1995 0 c-310 -2 -816 -2 -1125 0
-310 1 -57 2 562 2 619 0 872 -1 563 -2z m-6005 -320 c-229 -2 -607 -2 -840 0
-233 1 -45 2 417 2 462 0 652 -1 423 -2z m1915 0 c-238 -2 -628 -2 -865 0
-238 1 -44 2 432 2 476 0 670 -1 433 -2z m3615 0 c-570 -2 -1506 -2 -2080 0
-574 1 -107 2 1037 2 1144 0 1613 -1 1043 -2z m-4711 -320 c-384 -2 -1010 -2
-1390 0 -381 1 -67 2 698 2 765 0 1076 -1 692 -2z m956 0 c-29 -2 -78 -2 -110
0 -32 2 -8 3 52 3 61 0 87 -1 58 -3z m3619 0 c-644 -2 -1700 -2 -2345 0 -644
1 -117 2 1173 2 1290 0 1817 -1 1172 -2z m1178 -313 c0 -6 -107 -10 -300 -10
l-300 0 -1 -27 -2 -28 -4 28 -4 27 -600 0 -599 0 -1 -27 -2 -28 -4 28 -4 27
-595 0 -594 0 -1 -27 -2 -28 -4 28 -4 27 -595 0 -594 0 -1 -27 -2 -28 -4 28
-4 27 -600 0 -599 0 -1 -27 -2 -28 -4 28 -4 27 -595 0 -594 0 -1 -27 -2 -28
-4 28 -4 27 -600 0 c-393 0 -599 3 -599 10 0 7 1312 10 3915 10 2603 0 3915
-3 3915 -10z"/>
</g>
</svg>
